<svg width="143" height="34" viewBox="0 0 143 34" fill="none" xmlns="http://www.w3.org/2000/svg">
<path fillRule="evenodd" clipRule="evenodd" d="M116.714 7.77149C115.664 7.77473 114.783 8.67177 114.789 9.73179C114.796 10.775 115.67 11.6513 116.71 11.6572C117.768 11.663 118.669 10.7841 118.68 9.73632C118.69 8.67371 117.785 7.76826 116.714 7.77149Z" fill="white"/>
<path fillRule="evenodd" clipRule="evenodd" d="M114.789 25.2572H117.707V12.6286H114.789V25.2572Z" fill="white"/>
<path fillRule="evenodd" clipRule="evenodd" d="M68.8908 15.5301H62.4357V8.74291L59.3401 9.26918V25.2572H62.4357V18.6164H68.8908V25.2572H71.9864V8.74291L68.8908 9.26855V15.5301Z" fill="white"/>
<path fillRule="evenodd" clipRule="evenodd" d="M51.0714 22.1194C49.2892 22.1194 47.8437 20.6997 47.8437 18.948C47.8437 17.1969 49.2892 15.7772 51.0714 15.7772C52.8536 15.7772 54.2991 17.1969 54.2991 18.948C54.2991 20.6997 52.8536 22.1194 51.0714 22.1194ZM51.0714 12.7358C49.8924 12.7358 48.7886 13.0542 47.8437 13.6063V8.74291L44.7483 9.26153V25.2572H47.8437V24.2902C48.7886 24.8431 49.8924 25.1614 51.0714 25.1614C54.5637 25.1614 57.3945 22.3793 57.3945 18.948C57.3945 15.5173 54.5637 12.7358 51.0714 12.7358Z" fill="white"/>
<path fillRule="evenodd" clipRule="evenodd" d="M95.8197 22.1084C94.0375 22.1084 92.592 20.6886 92.592 18.9368C92.592 17.1857 94.0375 15.7659 95.8197 15.7659C97.6019 15.7659 99.0474 17.1857 99.0474 18.9368C99.0474 20.6886 97.6019 22.1084 95.8197 22.1084ZM95.8197 12.7244C94.6407 12.7244 93.5375 13.0428 92.592 13.595V12.6286H89.4966V29.1429H92.592V24.2799C93.5375 24.8321 94.6407 25.1505 95.8197 25.1505C99.312 25.1505 102.143 22.3683 102.143 18.9368C102.143 15.506 99.312 12.7244 95.8197 12.7244Z" fill="white"/>
<path fillRule="evenodd" clipRule="evenodd" d="M80.2551 22.1166C78.4729 22.1166 77.0274 20.6956 77.0274 18.9423C77.0274 17.1896 78.4729 15.7687 80.2551 15.7687C82.0373 15.7687 83.4828 17.1896 83.4828 18.9423C83.4828 20.6956 82.0373 22.1166 80.2551 22.1166ZM83.4828 13.5958C82.5379 13.0431 81.4342 12.7245 80.2551 12.7245C76.7628 12.7245 73.932 15.5085 73.932 18.9423C73.932 22.3767 76.7628 25.1614 80.2551 25.1614C81.4342 25.1614 82.5379 24.8427 83.4828 24.2894V25.2572H86.5782V12.6286H83.4828V13.5958Z" fill="white"/>
<path fillRule="evenodd" clipRule="evenodd" d="M125.909 15.7197C127.092 15.7197 128.122 16.3682 128.675 17.332L131.327 15.7861C130.245 13.8989 128.225 12.6286 125.909 12.6286C123.594 12.6286 121.574 13.8989 120.492 15.7861C119.96 16.7151 119.653 17.792 119.653 18.9429C119.653 20.0931 119.96 21.1707 120.492 22.0997C121.574 23.9863 123.594 25.2572 125.909 25.2572C128.225 25.2572 130.245 23.9863 131.327 22.0997L128.675 20.5539C128.122 21.5177 127.092 22.1655 125.909 22.1655C124.728 22.1655 123.696 21.5177 123.144 20.5539C122.872 20.0799 122.716 19.53 122.716 18.9429C122.716 18.3558 122.872 17.806 123.144 17.332C123.696 16.3682 124.728 15.7197 125.909 15.7197Z" fill="white"/>
<path fillRule="evenodd" clipRule="evenodd" d="M141.192 18.4362C140.711 18.199 140.202 18.0149 139.695 17.8397C138.984 17.5937 138.256 17.4001 137.55 17.1421C137.194 17.0118 136.9 16.7651 136.921 16.3078C136.939 15.9213 137.191 15.6449 137.669 15.4842C138.512 15.2015 139.473 15.5355 139.979 16.2888C140.045 16.3868 140.105 16.488 140.178 16.6044C141.042 16.1256 141.879 15.662 142.75 15.1806C142.694 15.0763 142.663 15.0105 142.625 14.9498C140.869 12.0927 136.93 12.1294 135.068 13.6771C133.387 15.075 133.329 17.698 134.995 18.9333C135.552 19.3457 136.231 19.6063 136.882 19.8638C137.669 20.1756 138.493 20.3913 139.287 20.6879C139.633 20.817 139.899 21.0757 139.868 21.5146C139.836 21.9542 139.561 22.1908 139.186 22.3129C138.157 22.6481 136.566 22.5033 135.986 21.0295C135.973 20.9966 135.955 20.965 135.931 20.9163C135.035 21.428 134.205 21.9024 133.272 22.4356C133.578 22.9277 133.86 23.3571 134.204 23.7348C135.968 25.6684 139.706 25.6336 141.554 24.3407C143.445 23.0175 143.638 19.6418 141.192 18.4362Z" fill="white"/>
<path fillRule="evenodd" clipRule="evenodd" d="M109.035 12.9398V8.74291L105.951 9.26855V12.9398H103.116V16.0267H105.951V22.3722C105.951 23.9655 107.241 25.2572 108.833 25.2572C108.859 25.2572 108.885 25.2547 108.911 25.254V25.2572H111.871V22.1703H109.701V22.1678C109.335 22.1678 109.037 21.8699 109.037 21.5033H109.035V16.0267H111.871V12.9398H109.035Z" fill="white"/>
<path fillRule="evenodd" clipRule="evenodd" d="M6.17524 14.5649L23.0673 27.7927C23.7981 28.3645 24.8509 28.2576 25.4508 27.5499L31.838 20.0217C32.3707 19.3936 32.3859 18.477 31.874 17.8312L22.6396 6.18789C22.1664 5.59079 21.3577 5.3751 20.6491 5.65531L6.66432 11.1892C5.25211 11.7483 4.97941 13.6288 6.17524 14.5649ZM21.1787 32.8972L2.65104 18.3885C-1.55142 15.0969 -0.594763 8.48835 4.36948 6.52312L19.9342 0.364311C22.0594 -0.476935 24.4846 0.172659 25.9044 1.96268L36.8168 15.7212C38.3523 17.6579 38.3074 20.4088 36.7086 22.2936L28.3296 32.1698C26.5283 34.2925 23.371 34.6138 21.1787 32.8972Z" fill="#FFD700"/>
</svg>
